<svg width="100%" height="100%" viewBox="0 0 20 20" fill="none" xmlns="http://www.w3.org/2000/svg">
    <path fill-rule="evenodd" clip-rule="evenodd"
          d="M9.99967 3.98164V16.0172C9.99983 16.4668 9.79586 16.8921 9.44521 17.1734C9.09456 17.4547 8.63515 17.5616 8.19634 17.4639L4.49301 16.6406C3.81524 16.4901 3.33301 15.889 3.33301 15.1947V4.80497C3.33301 4.11044 3.81572 3.50923 4.49384 3.35914L8.19717 2.53581C8.63574 2.43829 9.09486 2.54513 9.44533 2.82625C9.79579 3.10736 9.99967 3.53236 9.99967 3.98164Z"
          stroke="black" stroke-width="1.2" stroke-linecap="round" stroke-linejoin="round"/>
    <path d="M7.49967 10.85V9.18335" stroke="black" stroke-width="1.2" stroke-linecap="round" stroke-linejoin="round"/>
    <path d="M16.6667 6.66667V4.96501C16.6668 4.52294 16.4912 4.09895 16.1786 3.78636C15.8661 3.47377 15.4421 3.29822 15 3.29834H12.5"
          stroke="black" stroke-width="1.2" stroke-linecap="round" stroke-linejoin="round"/>
    <path d="M16.6667 13.3333V14.9999C16.6668 15.442 16.4912 15.866 16.1786 16.1786C15.8661 16.4912 15.4421 16.6667 15 16.6666H12.5"
          stroke="black" stroke-width="1.2" stroke-linecap="round" stroke-linejoin="round"/>
    <path d="M12.5 9.99992H16.6667" stroke="black" stroke-width="1.2" stroke-linecap="round" stroke-linejoin="round"/>
    <path d="M15 11.6666L16.6667 9.99992L15 8.33325" stroke="black" stroke-width="1.2" stroke-linecap="round"
          stroke-linejoin="round"/>
</svg>
